# 3ds Max Wavefront OBJ Exporter v0.97b - (c)2007 guruware
# File Created: 03.04.2015 14:18:25

mtllib baril.mtl

#
# object Cylinder001
#

v  0.0000 0.0000 -0.0000
v  0.5471 0.0000 -0.3975
v  0.6431 0.0000 -0.2090
v  0.6762 0.0000 -0.0000
v  0.2090 0.0000 -0.6431
v  0.3975 0.0000 -0.5471
v  -0.2090 0.0000 -0.6431
v  -0.0000 0.0000 -0.6762
v  -0.5471 0.0000 -0.3975
v  -0.3975 0.0000 -0.5471
v  -0.6762 0.0000 0.0000
v  -0.6431 0.0000 -0.2090
v  -0.5471 0.0000 0.3975
v  -0.6431 0.0000 0.2090
v  -0.2090 0.0000 0.6431
v  -0.3975 0.0000 0.5471
v  0.2090 0.0000 0.6431
v  0.0000 0.0000 0.6762
v  0.5471 0.0000 0.3975
v  0.3975 0.0000 0.5471
v  0.6431 0.0000 0.2090
v  0.6431 0.3090 -0.2090
v  0.6762 0.3090 -0.0000
v  0.5471 0.3090 -0.3975
v  0.3975 0.3090 -0.5471
v  0.2090 0.3090 -0.6431
v  -0.0000 0.3090 -0.6762
v  -0.2090 0.3090 -0.6431
v  -0.3975 0.3090 -0.5471
v  -0.5471 0.3090 -0.3975
v  -0.6431 0.3090 -0.2090
v  -0.6762 0.3090 0.0000
v  -0.6431 0.3090 0.2090
v  -0.5471 0.3090 0.3975
v  -0.3975 0.3090 0.5471
v  -0.2090 0.3090 0.6431
v  0.0000 0.3090 0.6762
v  0.2090 0.3090 0.6431
v  0.3975 0.3090 0.5471
v  0.5471 0.3090 0.3975
v  0.6431 0.3090 0.2090
v  0.6431 0.6180 -0.2090
v  0.6762 0.6180 -0.0000
v  0.5471 0.6180 -0.3975
v  0.3975 0.6180 -0.5471
v  0.2090 0.6180 -0.6431
v  -0.0000 0.6180 -0.6762
v  -0.2090 0.6180 -0.6431
v  -0.3975 0.6180 -0.5471
v  -0.5471 0.6180 -0.3975
v  -0.6431 0.6180 -0.2090
v  -0.6762 0.6180 0.0000
v  -0.6431 0.6180 0.2090
v  -0.5471 0.6180 0.3975
v  -0.3975 0.6180 0.5471
v  -0.2090 0.6180 0.6431
v  0.0000 0.6180 0.6762
v  0.2090 0.6180 0.6431
v  0.3975 0.6180 0.5471
v  0.5471 0.6180 0.3975
v  0.6431 0.6180 0.2090
v  0.6431 0.9271 -0.2090
v  0.6762 0.9271 -0.0000
v  0.5471 0.9271 -0.3975
v  0.3975 0.9271 -0.5471
v  0.2090 0.9271 -0.6431
v  -0.0000 0.9271 -0.6762
v  -0.2090 0.9271 -0.6431
v  -0.3975 0.9271 -0.5471
v  -0.5471 0.9271 -0.3975
v  -0.6431 0.9271 -0.2090
v  -0.6762 0.9271 0.0000
v  -0.6431 0.9271 0.2090
v  -0.5471 0.9271 0.3975
v  -0.3975 0.9271 0.5471
v  -0.2090 0.9271 0.6431
v  0.0000 0.9271 0.6762
v  0.2090 0.9271 0.6431
v  0.3975 0.9271 0.5471
v  0.5471 0.9271 0.3975
v  0.6431 0.9271 0.2090
v  0.6431 1.2361 -0.2090
v  0.6762 1.2361 -0.0000
v  0.5471 1.2361 -0.3975
v  0.3975 1.2361 -0.5471
v  0.2090 1.2361 -0.6431
v  -0.0000 1.2361 -0.6762
v  -0.2090 1.2361 -0.6431
v  -0.3975 1.2361 -0.5471
v  -0.5471 1.2361 -0.3975
v  -0.6431 1.2361 -0.2090
v  -0.6762 1.2361 0.0000
v  -0.6431 1.2361 0.2090
v  -0.5471 1.2361 0.3975
v  -0.3975 1.2361 0.5471
v  -0.2090 1.2361 0.6431
v  0.0000 1.2361 0.6762
v  0.2090 1.2361 0.6431
v  0.3975 1.2361 0.5471
v  0.5471 1.2361 0.3975
v  0.6431 1.2361 0.2090
v  0.6431 1.5451 -0.2090
v  0.6762 1.5451 -0.0000
v  0.5471 1.5451 -0.3975
v  0.3975 1.5451 -0.5471
v  0.2090 1.5451 -0.6431
v  -0.0000 1.5451 -0.6762
v  -0.2090 1.5451 -0.6431
v  -0.3975 1.5451 -0.5471
v  -0.5471 1.5451 -0.3975
v  -0.6431 1.5451 -0.2090
v  -0.6762 1.5451 0.0000
v  -0.6431 1.5451 0.2090
v  -0.5471 1.5451 0.3975
v  -0.3975 1.5451 0.5471
v  -0.2090 1.5451 0.6431
v  0.0000 1.5451 0.6762
v  0.2090 1.5451 0.6431
v  0.3975 1.5451 0.5471
v  0.5471 1.5451 0.3975
v  0.6431 1.5451 0.2090
v  0.6431 1.8541 -0.2090
v  0.6762 1.8541 -0.0000
v  0.5471 1.8541 -0.3975
v  0.3975 1.8541 -0.5471
v  0.2090 1.8541 -0.6431
v  -0.0000 1.8541 -0.6762
v  -0.2090 1.8541 -0.6431
v  -0.3975 1.8541 -0.5471
v  -0.5471 1.8541 -0.3975
v  -0.6431 1.8541 -0.2090
v  -0.6762 1.8541 0.0000
v  -0.6431 1.8541 0.2090
v  -0.5471 1.8541 0.3975
v  -0.3975 1.8541 0.5471
v  -0.2090 1.8541 0.6431
v  0.0000 1.8541 0.6762
v  0.2090 1.8541 0.6431
v  0.3975 1.8541 0.5471
v  0.5471 1.8541 0.3975
v  0.6431 1.8541 0.2090
v  0.0000 1.8541 -0.0000
# 142 vertices

vn 0.0000 -1.0000 -0.0000
vn 1.0000 0.0000 -0.0000
vn 0.9511 0.0000 -0.3090
vn 1.0000 -0.0000 -0.0000
vn 0.8090 0.0000 -0.5878
vn 0.5878 0.0000 -0.8090
vn 0.5878 -0.0000 -0.8090
vn 0.3090 0.0000 -0.9511
vn 0.3090 -0.0000 -0.9511
vn -0.0000 0.0000 -1.0000
vn -0.3090 0.0000 -0.9511
vn -0.5878 0.0000 -0.8090
vn -0.5878 -0.0000 -0.8090
vn -0.8090 0.0000 -0.5878
vn -0.8090 -0.0000 -0.5878
vn -0.9511 0.0000 -0.3090
vn -1.0000 0.0000 0.0000
vn -1.0000 -0.0000 0.0000
vn -0.9511 0.0000 0.3090
vn -0.9511 -0.0000 0.3090
vn -0.8090 0.0000 0.5878
vn -0.8090 -0.0000 0.5878
vn -0.5878 0.0000 0.8090
vn -0.5878 -0.0000 0.8090
vn -0.3090 0.0000 0.9511
vn 0.0000 0.0000 1.0000
vn 0.3090 0.0000 0.9511
vn 0.3090 -0.0000 0.9511
vn 0.5878 0.0000 0.8090
vn 0.5878 -0.0000 0.8090
vn 0.8090 0.0000 0.5878
vn 0.9511 0.0000 0.3090
vn 0.9511 -0.0000 -0.3090
vn 0.8090 -0.0000 -0.5878
vn -0.0000 -0.0000 -1.0000
vn -0.3090 -0.0000 -0.9511
vn -0.9511 -0.0000 -0.3090
vn -0.3090 -0.0000 0.9511
vn 0.0000 -0.0000 1.0000
vn 0.8090 -0.0000 0.5878
vn 0.9511 -0.0000 0.3090
vn 0.0000 1.0000 -0.0000
# 42 vertex normals

vt 0.5000 0.0000 0.0000
vt 0.8500 0.0000 1.0000
vt 0.8000 0.0000 1.0000
vt 0.7500 0.0000 1.0000
vt 0.9500 0.0000 1.0000
vt 0.9000 0.0000 1.0000
vt 0.0500 0.0000 1.0000
vt 0.0000 0.0000 1.0000
vt -0.0500 0.0000 1.0000
vt 0.1500 0.0000 1.0000
vt 0.1000 0.0000 1.0000
vt 0.2500 0.0000 1.0000
vt 0.2000 0.0000 1.0000
vt 0.3500 0.0000 1.0000
vt 0.3000 0.0000 1.0000
vt 0.4500 0.0000 1.0000
vt 0.4000 0.0000 1.0000
vt 0.5500 0.0000 1.0000
vt 0.5000 0.0000 1.0000
vt 0.6500 0.0000 1.0000
vt 0.6000 0.0000 1.0000
vt 0.7000 0.0000 1.0000
vt 0.8000 0.1667 1.0000
vt 0.7500 0.1667 1.0000
vt 0.8500 0.1667 1.0000
vt 0.9000 0.1667 1.0000
vt 0.9500 0.1667 1.0000
vt 0.0000 0.1667 1.0000
vt -0.0500 0.1667 1.0000
vt 0.0500 0.1667 1.0000
vt 0.1000 0.1667 1.0000
vt 0.1500 0.1667 1.0000
vt 0.2000 0.1667 1.0000
vt 0.2500 0.1667 1.0000
vt 0.3000 0.1667 1.0000
vt 0.3500 0.1667 1.0000
vt 0.4000 0.1667 1.0000
vt 0.4500 0.1667 1.0000
vt 0.5000 0.1667 1.0000
vt 0.5500 0.1667 1.0000
vt 0.6000 0.1667 1.0000
vt 0.6500 0.1667 1.0000
vt 0.7000 0.1667 1.0000
vt 0.8000 0.3333 1.0000
vt 0.7500 0.3333 1.0000
vt 0.8500 0.3333 1.0000
vt 0.9000 0.3333 1.0000
vt 0.9500 0.3333 1.0000
vt 0.0000 0.3333 1.0000
vt -0.0500 0.3333 1.0000
vt 0.0500 0.3333 1.0000
vt 0.1000 0.3333 1.0000
vt 0.1500 0.3333 1.0000
vt 0.2000 0.3333 1.0000
vt 0.2500 0.3333 1.0000
vt 0.3000 0.3333 1.0000
vt 0.3500 0.3333 1.0000
vt 0.4000 0.3333 1.0000
vt 0.4500 0.3333 1.0000
vt 0.5000 0.3333 1.0000
vt 0.5500 0.3333 1.0000
vt 0.6000 0.3333 1.0000
vt 0.6500 0.3333 1.0000
vt 0.7000 0.3333 1.0000
vt 0.8000 0.5000 1.0000
vt 0.7500 0.5000 1.0000
vt 0.8500 0.5000 1.0000
vt 0.9000 0.5000 1.0000
vt 0.9500 0.5000 1.0000
vt 0.0000 0.5000 1.0000
vt -0.0500 0.5000 1.0000
vt 0.0500 0.5000 1.0000
vt 0.1000 0.5000 1.0000
vt 0.1500 0.5000 1.0000
vt 0.2000 0.5000 1.0000
vt 0.2500 0.5000 1.0000
vt 0.3000 0.5000 1.0000
vt 0.3500 0.5000 1.0000
vt 0.4000 0.5000 1.0000
vt 0.4500 0.5000 1.0000
vt 0.5000 0.5000 1.0000
vt 0.5500 0.5000 1.0000
vt 0.6000 0.5000 1.0000
vt 0.6500 0.5000 1.0000
vt 0.7000 0.5000 1.0000
vt 0.8000 0.6667 1.0000
vt 0.7500 0.6667 1.0000
vt 0.8500 0.6667 1.0000
vt 0.9000 0.6667 1.0000
vt 0.9500 0.6667 1.0000
vt 0.0000 0.6667 1.0000
vt -0.0500 0.6667 1.0000
vt 0.0500 0.6667 1.0000
vt 0.1000 0.6667 1.0000
vt 0.1500 0.6667 1.0000
vt 0.2000 0.6667 1.0000
vt 0.2500 0.6667 1.0000
vt 0.3000 0.6667 1.0000
vt 0.3500 0.6667 1.0000
vt 0.4000 0.6667 1.0000
vt 0.4500 0.6667 1.0000
vt 0.5000 0.6667 1.0000
vt 0.5500 0.6667 1.0000
vt 0.6000 0.6667 1.0000
vt 0.6500 0.6667 1.0000
vt 0.7000 0.6667 1.0000
vt 0.8000 0.8333 1.0000
vt 0.7500 0.8333 1.0000
vt 0.8500 0.8333 1.0000
vt 0.9000 0.8333 1.0000
vt 0.9500 0.8333 1.0000
vt 0.0000 0.8333 1.0000
vt -0.0500 0.8333 1.0000
vt 0.0500 0.8333 1.0000
vt 0.1000 0.8333 1.0000
vt 0.1500 0.8333 1.0000
vt 0.2000 0.8333 1.0000
vt 0.2500 0.8333 1.0000
vt 0.3000 0.8333 1.0000
vt 0.3500 0.8333 1.0000
vt 0.4000 0.8333 1.0000
vt 0.4500 0.8333 1.0000
vt 0.5000 0.8333 1.0000
vt 0.5500 0.8333 1.0000
vt 0.6000 0.8333 1.0000
vt 0.6500 0.8333 1.0000
vt 0.7000 0.8333 1.0000
vt 0.8000 1.0000 1.0000
vt 0.7500 1.0000 1.0000
vt 0.8500 1.0000 1.0000
vt 0.9000 1.0000 1.0000
vt 0.9500 1.0000 1.0000
vt 0.0000 1.0000 1.0000
vt -0.0500 1.0000 1.0000
vt 0.0500 1.0000 1.0000
vt 0.1000 1.0000 1.0000
vt 0.1500 1.0000 1.0000
vt 0.2000 1.0000 1.0000
vt 0.2500 1.0000 1.0000
vt 0.3000 1.0000 1.0000
vt 0.3500 1.0000 1.0000
vt 0.4000 1.0000 1.0000
vt 0.4500 1.0000 1.0000
vt 0.5000 1.0000 1.0000
vt 0.5500 1.0000 1.0000
vt 0.6000 1.0000 1.0000
vt 0.6500 1.0000 1.0000
vt 0.7000 1.0000 1.0000
vt 0.5000 1.0000 0.0000
vt -0.0462 1.0000 0.9021
# 150 texture coords

g Cylinder001
usemtl 02___Default
s 1
f 1/1/1 2/2/1 3/3/1 4/4/1 
f 1/1/1 5/5/1 6/6/1 2/2/1 
f 1/1/1 7/7/1 8/8/1 5/9/1 
f 1/1/1 9/10/1 10/11/1 7/7/1 
f 1/1/1 11/12/1 12/13/1 9/10/1 
f 1/1/1 13/14/1 14/15/1 11/12/1 
f 1/1/1 15/16/1 16/17/1 13/14/1 
f 1/1/1 17/18/1 18/19/1 15/16/1 
f 1/1/1 19/20/1 20/21/1 17/18/1 
f 1/1/1 4/4/1 21/22/1 19/20/1 
s 8
f 4/4/2 3/3/3 22/23/3 23/24/4 
f 3/3/3 2/2/5 24/25/5 22/23/3 
f 2/2/5 6/6/6 25/26/7 24/25/5 
f 6/6/6 5/5/8 26/27/9 25/26/7 
f 5/9/8 8/8/10 27/28/10 26/29/9 
f 8/8/10 7/7/11 28/30/11 27/28/10 
f 7/7/11 10/11/12 29/31/13 28/30/11 
f 10/11/12 9/10/14 30/32/15 29/31/13 
f 9/10/14 12/13/16 31/33/16 30/32/15 
f 12/13/16 11/12/17 32/34/18 31/33/16 
f 11/12/17 14/15/19 33/35/20 32/34/18 
f 14/15/19 13/14/21 34/36/22 33/35/20 
f 13/14/21 16/17/23 35/37/24 34/36/22 
f 16/17/23 15/16/25 36/38/25 35/37/24 
f 15/16/25 18/19/26 37/39/26 36/38/25 
f 18/19/26 17/18/27 38/40/28 37/39/26 
f 17/18/27 20/21/29 39/41/30 38/40/28 
f 20/21/29 19/20/31 40/42/31 39/41/30 
f 19/20/31 21/22/32 41/43/32 40/42/31 
f 21/22/32 4/4/2 23/24/4 41/43/32 
f 23/24/4 22/23/3 42/44/33 43/45/4 
f 22/23/3 24/25/5 44/46/34 42/44/33 
f 24/25/5 25/26/7 45/47/7 44/46/34 
f 25/26/7 26/27/9 46/48/9 45/47/7 
f 26/29/9 27/28/10 47/49/35 46/50/9 
f 27/28/10 28/30/11 48/51/36 47/49/35 
f 28/30/11 29/31/13 49/52/13 48/51/36 
f 29/31/13 30/32/15 50/53/15 49/52/13 
f 30/32/15 31/33/16 51/54/37 50/53/15 
f 31/33/16 32/34/18 52/55/18 51/54/37 
f 32/34/18 33/35/20 53/56/20 52/55/18 
f 33/35/20 34/36/22 54/57/22 53/56/20 
f 34/36/22 35/37/24 55/58/24 54/57/22 
f 35/37/24 36/38/25 56/59/38 55/58/24 
f 36/38/25 37/39/26 57/60/39 56/59/38 
f 37/39/26 38/40/28 58/61/28 57/60/39 
f 38/40/28 39/41/30 59/62/30 58/61/28 
f 39/41/30 40/42/31 60/63/40 59/62/30 
f 40/42/31 41/43/32 61/64/41 60/63/40 
f 41/43/32 23/24/4 43/45/4 61/64/41 
f 43/45/4 42/44/33 62/65/3 63/66/2 
f 42/44/33 44/46/34 64/67/5 62/65/3 
f 44/46/34 45/47/7 65/68/6 64/67/5 
f 45/47/7 46/48/9 66/69/8 65/68/6 
f 46/50/9 47/49/35 67/70/10 66/71/8 
f 47/49/35 48/51/36 68/72/11 67/70/10 
f 48/51/36 49/52/13 69/73/12 68/72/11 
f 49/52/13 50/53/15 70/74/14 69/73/12 
f 50/53/15 51/54/37 71/75/16 70/74/14 
f 51/54/37 52/55/18 72/76/17 71/75/16 
f 52/55/18 53/56/20 73/77/19 72/76/17 
f 53/56/20 54/57/22 74/78/21 73/77/19 
f 54/57/22 55/58/24 75/79/23 74/78/21 
f 55/58/24 56/59/38 76/80/25 75/79/23 
f 56/59/38 57/60/39 77/81/26 76/80/25 
f 57/60/39 58/61/28 78/82/27 77/81/26 
f 58/61/28 59/62/30 79/83/29 78/82/27 
f 59/62/30 60/63/40 80/84/31 79/83/29 
f 60/63/40 61/64/41 81/85/32 80/84/31 
f 61/64/41 43/45/4 63/66/2 81/85/32 
f 63/66/2 62/65/3 82/86/3 83/87/2 
f 62/65/3 64/67/5 84/88/5 82/86/3 
f 64/67/5 65/68/6 85/89/6 84/88/5 
f 65/68/6 66/69/8 86/90/8 85/89/6 
f 66/71/8 67/70/10 87/91/10 86/92/8 
f 67/70/10 68/72/11 88/93/11 87/91/10 
f 68/72/11 69/73/12 89/94/12 88/93/11 
f 69/73/12 70/74/14 90/95/14 89/94/12 
f 70/74/14 71/75/16 91/96/16 90/95/14 
f 71/75/16 72/76/17 92/97/17 91/96/16 
f 72/76/17 73/77/19 93/98/19 92/97/17 
f 73/77/19 74/78/21 94/99/21 93/98/19 
f 74/78/21 75/79/23 95/100/23 94/99/21 
f 75/79/23 76/80/25 96/101/25 95/100/23 
f 76/80/25 77/81/26 97/102/26 96/101/25 
f 77/81/26 78/82/27 98/103/27 97/102/26 
f 78/82/27 79/83/29 99/104/29 98/103/27 
f 79/83/29 80/84/31 100/105/31 99/104/29 
f 80/84/31 81/85/32 101/106/32 100/105/31 
f 81/85/32 63/66/2 83/87/2 101/106/32 
f 83/87/2 82/86/3 102/107/3 103/108/2 
f 82/86/3 84/88/5 104/109/5 102/107/3 
f 84/88/5 85/89/6 105/110/6 104/109/5 
f 85/89/6 86/90/8 106/111/8 105/110/6 
f 86/92/8 87/91/10 107/112/10 106/113/8 
f 87/91/10 88/93/11 108/114/11 107/112/10 
f 88/93/11 89/94/12 109/115/12 108/114/11 
f 89/94/12 90/95/14 110/116/14 109/115/12 
f 90/95/14 91/96/16 111/117/16 110/116/14 
f 91/96/16 92/97/17 112/118/17 111/117/16 
f 92/97/17 93/98/19 113/119/19 112/118/17 
f 93/98/19 94/99/21 114/120/21 113/119/19 
f 94/99/21 95/100/23 115/121/23 114/120/21 
f 95/100/23 96/101/25 116/122/25 115/121/23 
f 96/101/25 97/102/26 117/123/26 116/122/25 
f 97/102/26 98/103/27 118/124/27 117/123/26 
f 98/103/27 99/104/29 119/125/29 118/124/27 
f 99/104/29 100/105/31 120/126/31 119/125/29 
f 100/105/31 101/106/32 121/127/32 120/126/31 
f 101/106/32 83/87/2 103/108/2 121/127/32 
f 103/108/2 102/107/3 122/128/3 123/129/2 
f 102/107/3 104/109/5 124/130/5 122/128/3 
f 104/109/5 105/110/6 125/131/6 124/130/5 
f 105/110/6 106/111/8 126/132/8 125/131/6 
f 106/113/8 107/112/10 127/133/10 126/134/8 
f 107/112/10 108/114/11 128/135/11 127/133/10 
f 108/114/11 109/115/12 129/136/12 128/135/11 
f 109/115/12 110/116/14 130/137/14 129/136/12 
f 110/116/14 111/117/16 131/138/16 130/137/14 
f 111/117/16 112/118/17 132/139/17 131/138/16 
f 112/118/17 113/119/19 133/140/19 132/139/17 
f 113/119/19 114/120/21 134/141/21 133/140/19 
f 114/120/21 115/121/23 135/142/23 134/141/21 
f 115/121/23 116/122/25 136/143/25 135/142/23 
f 116/122/25 117/123/26 137/144/26 136/143/25 
f 117/123/26 118/124/27 138/145/27 137/144/26 
f 118/124/27 119/125/29 139/146/29 138/145/27 
f 119/125/29 120/126/31 140/147/31 139/146/29 
f 120/126/31 121/127/32 141/148/32 140/147/31 
f 121/127/32 103/108/2 123/129/2 141/148/32 
s 1
f 142/149/42 141/148/42 123/129/42 122/128/42 
f 142/149/42 122/128/42 124/130/42 125/131/42 
f 142/149/42 125/150/42 126/134/42 127/133/42 
f 142/149/42 127/133/42 128/135/42 129/136/42 
f 142/149/42 129/136/42 130/137/42 131/138/42 
f 142/149/42 131/138/42 132/139/42 133/140/42 
f 142/149/42 133/140/42 134/141/42 135/142/42 
f 142/149/42 135/142/42 136/143/42 137/144/42 
f 142/149/42 137/144/42 138/145/42 139/146/42 
f 142/149/42 139/146/42 140/147/42 141/148/42 
# 140 polygons

